<?xml version="1.0" encoding="iso-8859-1"?>
<!-- Uploaded to: SVG Repo, www.svgrepo.com, Generator: SVG Repo Mixer Tools -->
<svg height="800px" width="800px" version="1.1" id="Layer_1" xmlns="http://www.w3.org/2000/svg" xmlns:xlink="http://www.w3.org/1999/xlink" 
	 viewBox="0 0 448.004 448.004" xml:space="preserve">
<g transform="translate(0 -1020.36)" shape-rendering="auto" image-rendering="auto" color-rendering="auto" color-interpolation="sRGB">
	<path style="fill:#464C63;" d="M215.667,1136.362c-58.349,0.004-107.366,44.285-113.25,102.326l-2.499,24.811
		c-39.338,5.049-67.502,11.871-84.062,20.84c-8.318,4.506-15.126,10.004-15.813,18.777c-0.344,4.385,1.406,8.762,4,12.031
		c2.592,3.27,5.981,5.854,10.157,8.279c16.701,9.703,45.296,16.291,82.437,21.246c37.139,4.959,82.41,7.807,130.282,7.686
		c47.87-0.16,92.787-3.139,129.218-8.279c36.432-5.146,64.01-11.783,79.72-21.84c3.926-2.516,7.064-5.309,9.342-8.844
		c2.28-3.531,3.421-8.156,2.469-12.402c-1.901-8.494-8.794-13.34-17.594-17.717c-16.798-8.355-44.739-14.912-82.28-19.715
		l-2.469-24.684c-5.805-58.121-54.861-102.52-113.282-102.516H215.667z"/>
	<path style="fill:#2ECC71;" d="M215.667,1152.36h16.376c50.336-0.004,92.342,38,97.344,88.08l0.843,8.467l-82.531,7.404
		c-6.656-4.939-14.811-7.967-23.688-7.967c-8.883,0-17.029,3.016-23.686,7.967l-82.845-7.436l0.875-8.563
		c5.069-50.01,47.038-87.951,97.312-87.955L215.667,1152.36z"/>
	<path style="fill:#FCD116;" d="M224.011,1264.341c13.35,0,24,10.648,24,23.996c-0.008,8.43-4.426,16.219-11.656,20.559
		l-12.781,7.656l-12.531-8.031c-6.882-4.414-11.024-12.01-11.032-20.184C200.011,1274.987,210.662,1264.341,224.011,1264.341z"/>
	<g>
		<path style="fill:#AA99FF;" d="M115.886,1264.778l72.125,6.5c-2.485,5.199-4,10.941-4,17.061
			c0.006,6.234,1.816,12.137,4.501,17.561c-9.136-0.607-18.286-0.896-27.376-2.002h-0.093l-48.469-6.467L115.886,1264.778z"/>
		<path style="fill:#AA99FF;" d="M331.824,1264.811l3.282,32.619l-48.219,6.438c-9.154,1.217-18.387,1.602-27.594,2.279
			c2.768-5.484,4.714-11.469,4.718-17.811c0-6.121-1.512-11.859-4-17.061L331.824,1264.811z"/>
	</g>
	<path style="fill:#57BB63;" d="M98.23,1279.997l-3.157,31.244l64,8.529h0.032c15.744,1.916,31.581,3.078,47.437,3.471l5.658,0.16
		l-2.314,1.408l25.219-0.848l5.656-0.176c16.141-0.545,32.242-1.875,48.25-3.996l63.531-8.5l-3.125-31.213
		c34.752,4.697,60.582,11.135,73.438,17.527c6.974,3.471,9.227,6.881,9.218,6.844c-0.003,0,0.256-0.367-0.218,0.367
		c-0.473,0.736-1.947,2.287-4.626,3.996c-10.712,6.857-37.861,14.488-73.344,19.498c-35.482,5.006-79.744,7.912-126.968,8.031
		c-47.226,0.16-91.931-2.6-128.157-7.438c-36.224-4.83-64.358-12.174-76.531-19.246c-3.043-1.766-4.877-3.52-5.656-4.5
		c-0.781-0.977-0.582-0.881-0.594-0.721c-0.024,0.305,1.128-2.58,7.437-5.996c12.126-6.568,38.459-13.49,74.813-18.402
		L98.23,1279.997z"/>
	<path style="fill:#31AF66;" d="M215.668,1152.36c-50.274,0.004-92.243,37.943-97.312,87.953l-0.88,8.563l82.845,7.438
		c0.272-0.207,0.592-0.367,0.88-0.561l-76.562-6.873l0.88-8.563c5.069-50.012,47.038-87.951,97.312-87.955L215.668,1152.36z
		 M231.168,1248.345c-1.232,0-2.397,0.191-3.594,0.305c7.477,0.703,14.381,3.393,20.125,7.654l6.282-0.561
		c-6.498-4.58-14.307-7.406-22.813-7.406L231.168,1248.345z"/>
	<path style="fill:#D6B31E;" d="M224.012,1264.341c-13.349,0-24,10.65-24,23.996c0.008,8.176,4.15,15.771,11.032,20.184
		l12.531,8.031l3.688-2.219l-9.062-5.811c-6.882-4.412-11.024-12.008-11.032-20.184c0-12.119,8.8-21.934,20.406-23.652
		c-1.168-0.176-2.342-0.352-3.563-0.352V1264.341z"/>
	<g>
		<path style="fill:#9486D8;" d="M115.887,1264.78l-3.312,32.65l48.469,6.467h0.16c9.09,1.104,18.24,1.393,27.376,2
			c-0.16-0.176-0.16-0.352-0.224-0.527c-6.677-0.385-13.358-0.656-20-1.473h-0.16l-48.469-6.467l3.25-32.027L115.887,1264.78z"/>
		<path style="fill:#9486D8;" d="M331.824,1264.811l-71.813,6.469c2.488,5.199,4,10.939,4,17.059
			c-0.005,6.342-1.95,12.326-4.718,17.811c2.472-0.176,4.933-0.465,7.406-0.623c2.608-5.318,4.464-11.074,4.469-17.184
			c0-6.121-1.504-11.859-4-17.061l64.718-5.842L331.824,1264.811z"/>
	</g>
	<path style="fill:#52A25B;" d="M98.231,1279.997c-36.354,4.914-62.686,11.836-74.813,18.402c-6.309,3.416-7.461,6.301-7.437,6
		c0.011-0.16-0.192-0.256,0.592,0.721s2.613,2.734,5.656,4.5c12.173,7.072,40.307,14.414,76.531,19.246
		c36.226,4.836,80.931,7.557,128.157,7.438c1.152-0.004,2.232,0,3.374,0c-45.504,0-88.53-2.697-123.562-7.375
		c-36.224-4.83-64.358-12.174-76.531-19.246c-3.045-1.766-4.878-3.52-5.658-4.5c-0.784-0.977-0.576-0.881-0.592-0.721
		c0,0.305,1.136-2.584,7.438-6c11.158-6.043,34.763-12.318,66.718-17.121L98.231,1279.997z M349.418,1279.997l3.125,31.215
		l-63.531,8.498c-16.008,2.123-32.109,3.455-48.25,4l-5.656,0.191l-16.781,0.561l-0.464,0.287l25.218-0.848l5.658-0.191
		c16.141-0.545,32.242-1.877,48.25-4l63.531-8.498l-3-29.934c-2.766-0.416-5.202-0.896-8.094-1.279L349.418,1279.997z"/>
	<path style="fill:#464C63;" d="M224.033,1248.349c-21.996,0-40,18.006-40,40c0,21.996,18.004,40,40,40s40-18.004,40-40
		C264.033,1266.354,246.029,1248.349,224.033,1248.349z M224.033,1264.349c13.35,0,24,10.654,24,24c0,13.348-10.65,24-24,24
		s-24-10.652-24-24C200.033,1275.003,210.683,1264.349,224.033,1264.349z"/>
</g>
</svg>